<svg width="100" height="100" viewBox="0 0 100 100" fill="none" xmlns="http://www.w3.org/2000/svg">
<circle cx="50" cy="50" r="50" fill="#4CA154"/>
<path d="M30.348 57.56V32H32.868L33.12 36.392L32.724 35.888C33.036 35.048 33.504 34.316 34.128 33.692C34.752 33.044 35.508 32.54 36.396 32.18C37.284 31.82 38.244 31.64 39.276 31.64C40.74 31.64 42.084 32.012 43.308 32.756C44.556 33.5 45.552 34.568 46.296 35.96C47.04 37.352 47.412 39.032 47.412 41C47.412 42.944 47.028 44.624 46.26 46.04C45.516 47.432 44.52 48.5 43.272 49.244C42.024 49.988 40.656 50.36 39.168 50.36C37.68 50.36 36.372 50 35.244 49.28C34.14 48.536 33.348 47.6 32.868 46.472L33.228 45.932V57.56H30.348ZM38.88 47.84C40.656 47.84 42.036 47.216 43.02 45.968C44.028 44.72 44.532 43.064 44.532 41C44.532 38.936 44.04 37.28 43.056 36.032C42.096 34.784 40.74 34.16 38.988 34.16C37.836 34.16 36.828 34.448 35.964 35.024C35.1 35.576 34.428 36.368 33.948 37.4C33.468 38.408 33.228 39.608 33.228 41C33.228 42.368 33.456 43.568 33.912 44.6C34.392 45.632 35.052 46.436 35.892 47.012C36.756 47.564 37.752 47.84 38.88 47.84Z" fill="white"/>
<path d="M60.368 71.36C58.88 71.36 57.512 70.988 56.264 70.244C55.016 69.5 54.02 68.432 53.276 67.04C52.532 65.624 52.16 63.944 52.16 62C52.16 60.008 52.556 58.316 53.348 56.924C54.14 55.532 55.184 54.476 56.48 53.756C57.776 53.012 59.168 52.64 60.656 52.64C62.144 52.64 63.428 53.024 64.508 53.792C65.612 54.56 66.344 55.58 66.704 56.852L66.344 57.104V44.72H69.224V71H66.704L66.452 66.644L66.848 66.428C66.68 67.484 66.272 68.384 65.624 69.128C65 69.848 64.22 70.4 63.284 70.784C62.372 71.168 61.4 71.36 60.368 71.36ZM60.656 68.84C61.808 68.84 62.804 68.552 63.644 67.976C64.508 67.4 65.168 66.584 65.624 65.528C66.104 64.448 66.344 63.188 66.344 61.748C66.344 60.38 66.104 59.204 65.624 58.22C65.168 57.236 64.52 56.48 63.68 55.952C62.864 55.424 61.904 55.16 60.8 55.16C58.976 55.16 57.56 55.784 56.552 57.032C55.544 58.28 55.04 59.936 55.04 62C55.04 64.064 55.532 65.72 56.516 66.968C57.5 68.216 58.88 68.84 60.656 68.84Z" fill="white"/>
<rect width="2" height="79.0085" transform="matrix(-0.707107 -0.707107 -0.707107 0.707107 78.2816 22.4142)" fill="#D9D9D9"/>
</svg>
